<?xml version="1.0" standalone="no"?>
<!DOCTYPE svg PUBLIC "-//W3C//DTD SVG 20010904//EN"
 "http://www.w3.org/TR/2001/REC-SVG-20010904/DTD/svg10.dtd">
<svg version="1.0" xmlns="http://www.w3.org/2000/svg"
 width="256.000000pt" height="256.000000pt" viewBox="0 0 256.000000 256.000000"
 preserveAspectRatio="xMidYMid meet">
<metadata>
Created by potrace 1.14, written by Peter Selinger 2001-2017
</metadata>
<g transform="translate(0.000000,256.000000) scale(0.100000,-0.100000)"
fill="#000000" stroke="none">
<path d="M279 2206 c-10 -20 -1 -40 66 -157 97 -167 100 -171 130 -157 46 21
44 28 -60 208 -65 113 -79 130 -103 130 -14 0 -26 -9 -33 -24z"/>
<path d="M2222 2198 c-9 -12 -79 -130 -139 -236 -32 -57 -25 -92 16 -92 25 0
34 8 63 58 18 31 38 65 43 74 12 20 63 112 81 147 9 17 10 30 3 43 -11 21 -52
24 -67 6z"/>
<path d="M1752 2178 c-20 -20 -14 -36 55 -157 92 -159 100 -171 128 -171 26 0
45 26 37 50 -5 14 -118 212 -153 268 -15 24 -48 29 -67 10z"/>
<path d="M69 1802 c-15 -5 -39 -31 -39 -43 0 -4 7 -15 16 -23 13 -13 44 -16
185 -16 l169 0 12 25 c9 21 9 29 -5 42 -14 14 -41 17 -170 18 -84 1 -160 -1
-168 -3z"/>
<path d="M2127 1792 c-20 -22 -22 -43 -5 -60 37 -37 92 14 62 57 -19 26 -36
27 -57 3z"/>
<path d="M2280 1800 c-28 -7 -39 -42 -20 -66 19 -22 215 -20 224 2 10 25 7 52
-6 60 -15 9 -163 12 -198 4z"/>
<path d="M566 1718 c-46 -59 -296 -409 -307 -430 -12 -22 25 -61 365 -383 70
-66 156 -147 190 -180 426 -407 446 -425 467 -425 19 0 16 -2 248 219 90 86
183 174 206 196 23 22 116 110 205 195 90 85 181 172 204 193 160 151 165 157
155 185 -6 15 -13 29 -17 32 -4 3 -27 34 -52 70 -24 36 -50 71 -57 78 -7 7
-13 16 -13 20 0 4 -10 19 -23 34 -12 15 -32 42 -45 60 -12 18 -44 62 -70 98
l-47 65 -692 3 -692 2 -25 -32z"/>
</g>
</svg>
